if (_typeface_js && _typeface_js.loadFace) _typeface_js.loadFace({"glyphs":{"◊":{"x_min":0,"x_max":0,"ha":163},"₤":{"x_min":0,"x_max":0,"ha":163},"—":{"x_min":0,"x_max":0,"ha":163},"⁄":{"x_min":0,"x_max":0,"ha":163},"†":{"x_min":0,"x_max":0,"ha":163},"’":{"x_min":81.390625,"x_max":302.484375,"ha":384,"o":"m 161 1109 l 302 1109 l 302 1088 l 161 748 l 81 748 l 81 768 l 161 1109 "},"₧":{"x_min":0,"x_max":0,"ha":163},"›":{"x_min":0,"x_max":0,"ha":163},"‹":{"x_min":0,"x_max":0,"ha":163},"‗":{"x_min":0,"x_max":0,"ha":163},"″":{"x_min":0,"x_max":0,"ha":163},"„":{"x_min":0,"x_max":0,"ha":163},"”":{"x_min":81.390625,"x_max":602.265625,"ha":684,"o":"m 161 1109 l 302 1109 l 302 1088 l 161 748 l 81 748 l 81 768 l 161 1109 m 461 1110 l 602 1110 l 602 1090 l 461 749 l 381 749 l 381 769 l 461 1110 "},"€":{"x_min":0,"x_max":0,"ha":163},"–":{"x_min":0,"x_max":0,"ha":163},"⅝":{"x_min":0,"x_max":0,"ha":163},"“":{"x_min":81.390625,"x_max":602.265625,"ha":684,"o":"m 161 1109 l 302 1109 l 302 1088 l 161 748 l 81 748 l 81 768 l 161 1109 m 461 1110 l 602 1110 l 602 1090 l 461 749 l 381 749 l 381 769 l 461 1110 "},"―":{"x_min":0,"x_max":0,"ha":163},"‘":{"x_min":0,"x_max":0,"ha":163},"‾":{"x_min":0,"x_max":0,"ha":163},"′":{"x_min":0,"x_max":0,"ha":163},"…":{"x_min":0,"x_max":0,"ha":163},"⅛":{"x_min":0,"x_max":0,"ha":163},"‚":{"x_min":0,"x_max":0,"ha":163},"⅞":{"x_min":0,"x_max":0,"ha":163},"₣":{"x_min":0,"x_max":0,"ha":163},"‡":{"x_min":0,"x_max":0,"ha":163},"⅜":{"x_min":0,"x_max":0,"ha":163},"ⁿ":{"x_min":0,"x_max":0,"ha":163},"‛":{"x_min":0,"x_max":0,"ha":163},"‼":{"x_min":0,"x_max":0,"ha":163},"•":{"x_min":0,"x_max":0,"ha":163},"‰":{"x_min":0,"x_max":0,"ha":163}}}
